<svg width="17" height="31" viewBox="0 0 17 31" fill="none" xmlns="http://www.w3.org/2000/svg">
<g id="Frame">
<path id="Vector" d="M11.3825 16.3192C11.7119 16.4382 11.9456 16.5221 12.1719 16.6061C12.7616 16.8228 13.2185 17.0013 13.6244 17.1788C14.9302 17.7472 15.7419 18.2997 16.1935 19.1816C16.6865 20.1771 16.9606 21.2619 16.9989 22.3659C17.0307 23.2584 16.2955 24 15.3796 24H1.62025C0.704374 24 -0.0308763 23.2594 0.000998657 22.3659C0.0411336 21.2518 0.31899 20.1592 0.815936 19.1614C1.25794 18.2997 2.06969 17.7483 3.37656 17.1788C3.85469 16.9735 4.33868 16.7821 4.82794 16.605L5.86069 16.2331C5.85921 16.2076 5.85708 16.1821 5.85431 16.1566C4.85875 15.0028 4.39975 13.7479 4.39975 11.726C4.39975 8.86575 5.86175 7 8.50312 7C11.1434 7 12.6001 8.86469 12.6001 11.726C12.6001 13.8829 12.0774 15.1653 10.9394 16.3861C11.119 16.1949 11.1487 16.1173 11.1594 16.0621C11.1488 16.1182 11.1421 16.175 11.1392 16.2321L11.3814 16.3192H11.3825ZM1.62025 22.4201H15.3796C15.348 21.5331 15.1278 20.6631 14.7336 19.8679C14.2789 18.9808 12.3812 18.3656 9.99487 17.5049C9.34887 17.2733 9.45406 15.6296 9.73987 15.3236C10.4103 14.6043 10.9787 13.7607 10.9787 11.726C10.9787 9.67112 10.1479 8.581 8.50312 8.581C6.85731 8.581 6.02112 9.67112 6.02112 11.726C6.02112 13.7607 6.5885 14.6043 7.25894 15.3236C7.54581 15.6296 7.651 17.2712 7.00606 17.5049C4.62075 18.3656 2.721 18.9808 2.26519 19.8679C1.87139 20.6632 1.65153 21.5332 1.62025 22.4201Z" fill="#EF9540"/>
</g>
</svg>
