<svg width="17" height="31" viewBox="0 0 17 31" fill="none" xmlns="http://www.w3.org/2000/svg">
<g id="Frame" clip-path="url(#clip0_1_512)">
<path id="Vector" d="M3.43944 22.64C3.43953 23.0008 3.58294 23.3468 3.83811 23.6018C4.09329 23.8569 4.43933 24.0001 4.80012 24C5.1609 23.9999 5.50688 23.8565 5.76193 23.6013C6.01698 23.3461 6.16021 23.0001 6.16012 22.6393C6.16007 22.4607 6.12484 22.2838 6.05644 22.1188C5.98803 21.9537 5.8878 21.8038 5.76144 21.6775C5.63509 21.5512 5.48511 21.4511 5.32004 21.3827C5.15498 21.3144 4.97808 21.2793 4.79944 21.2793C4.6208 21.2794 4.44391 21.3146 4.27889 21.383C4.11386 21.4514 3.96392 21.5516 3.83763 21.678C3.71135 21.8043 3.61118 21.9543 3.54286 22.1194C3.47454 22.2845 3.4394 22.4614 3.43944 22.64ZM11.6532 22.64C11.6532 23.3907 12.2624 24 13.0132 24C13.7639 24 14.3337 23.3907 14.3337 22.64C14.3337 21.8893 13.7639 21.28 13.0132 21.28C12.2624 21.28 11.6532 21.8893 11.6532 22.64ZM0 7.68C0 7.86035 0.0716427 8.03331 0.199167 8.16083C0.326692 8.28836 0.499653 8.36 0.68 8.36H1.41304L2.02096 10.6319L3.43944 15.84C3.43944 15.889 3.46256 15.9311 3.468 15.9787L2.77576 19.0931C2.75338 19.1925 2.75369 19.2957 2.77666 19.3949C2.79963 19.4942 2.84467 19.587 2.90844 19.6664C2.97221 19.7459 3.05306 19.8099 3.14499 19.8538C3.23692 19.8977 3.33757 19.9203 3.43944 19.92H14.8022C14.9826 19.92 15.1555 19.8484 15.2831 19.7208C15.4106 19.5933 15.4822 19.4203 15.4822 19.24C15.4822 19.0597 15.4106 18.8867 15.2831 18.7592C15.1555 18.6316 14.9826 18.56 14.8022 18.56H4.28808L4.59952 17.1585C4.66752 17.1701 4.72872 17.2 4.79944 17.2H13.1702C13.921 17.2 14.3344 17.0518 14.6962 16.18L16.9048 11.4445C17.2876 10.23 16.4465 9.72 15.6937 9.72H3.43944C3.33268 9.72 3.24088 9.75672 3.1416 9.77984L2.61392 7.52496C2.57894 7.37557 2.49446 7.2424 2.37422 7.14709C2.25397 7.05179 2.10503 6.99995 1.9516 7H0.68C0.499653 7 0.326692 7.07164 0.199167 7.19917C0.0716427 7.32669 0 7.49965 0 7.68ZM3.46664 11.08H15.5924L13.4218 15.7026C13.396 15.7611 13.3742 15.8026 13.3579 15.8318C13.3124 15.8359 13.2811 15.84 13.1696 15.84H4.79944V15.7054L4.7736 15.5728L3.46664 11.08Z" fill="#EF9540"/>
</g>
<defs>
<clipPath id="clip0_1_512">
<rect width="17" height="30" fill="white" transform="translate(0 0.5)"/>
</clipPath>
</defs>
</svg>
