<svg width="21" height="21" viewBox="0 0 21 21" fill="none" xmlns="http://www.w3.org/2000/svg">
<g id="Frame" clip-path="url(#clip0_1_422)">
<path id="Vector" d="M18.82 1.36086C19.1127 1.36086 19.3607 1.46253 19.564 1.66586C19.7674 1.8692 19.869 2.1172 19.869 2.40986V19.0469C19.869 19.3395 19.7674 19.5875 19.564 19.7909C19.3607 19.9942 19.1127 20.0959 18.82 20.0959H14.088V12.8749H16.503L16.845 10.0209H14.088V8.19086C14.088 7.75153 14.1857 7.4182 14.381 7.19086C14.5764 6.96353 14.934 6.84953 15.454 6.84886H16.942V4.31186C16.2914 4.24653 15.5677 4.21386 14.771 4.21386C13.6817 4.21386 12.8034 4.5352 12.136 5.17786C11.4687 5.82053 11.1354 6.7272 11.136 7.89786V10.0199H8.72102V12.8739H11.136V20.0949H2.18302C1.89035 20.0949 1.64235 19.9932 1.43902 19.7899C1.23568 19.5865 1.13402 19.3385 1.13402 19.0459V2.40886C1.13402 2.1162 1.23568 1.8682 1.43902 1.66486C1.64235 1.46153 1.89035 1.35986 2.18302 1.35986L18.82 1.36086Z" fill="#EF9540" fill-opacity="0.9"/>
</g>
<defs>
<clipPath id="clip0_1_422">
<rect width="20" height="20" fill="white" transform="translate(0.77002 0.549805)"/>
</clipPath>
</defs>
</svg>
