<svg width="36" height="23" viewBox="0 0 36 23" fill="none" xmlns="http://www.w3.org/2000/svg">
<g id="Img" clip-path="url(#clip0_1_437)">
<path id="Vector" opacity="0.07" d="M32.4367 0.549805H3.10333C1.54499 0.549805 0.353325 1.74147 0.353325 3.2998V19.7998C0.353325 21.3581 1.63666 22.5498 3.10333 22.5498H32.4367C33.995 22.5498 35.1867 21.3581 35.1867 19.7998V3.2998C35.1867 1.74147 33.9033 0.549805 32.4367 0.549805Z" fill="black"/>
<path id="Vector_2" d="M32.4367 1.46631C33.445 1.46631 34.27 2.29131 34.27 3.29964V19.7996C34.27 20.808 33.445 21.633 32.4367 21.633H3.10332C2.09499 21.633 1.26999 20.808 1.26999 19.7996V3.29964C1.26999 2.29131 2.09499 1.46631 3.10332 1.46631H32.4367Z" fill="white"/>
<path id="Vector_3" d="M14.1033 17.9666C17.6471 17.9666 20.52 15.0938 20.52 11.55C20.52 8.00614 17.6471 5.1333 14.1033 5.1333C10.5595 5.1333 7.68665 8.00614 7.68665 11.55C7.68665 15.0938 10.5595 17.9666 14.1033 17.9666Z" fill="#EB001B"/>
<path id="Vector_4" d="M21.4367 17.9666C24.9805 17.9666 27.8533 15.0938 27.8533 11.55C27.8533 8.00614 24.9805 5.1333 21.4367 5.1333C17.8928 5.1333 15.02 8.00614 15.02 11.55C15.02 15.0938 17.8928 17.9666 21.4367 17.9666Z" fill="#F79E1B"/>
<path id="Vector_5" d="M20.52 11.5497C20.52 9.34971 19.42 7.42471 17.77 6.32471C16.12 7.51637 15.02 9.44137 15.02 11.5497C15.02 13.658 16.12 15.6747 17.77 16.7747C19.42 15.6747 20.52 13.7497 20.52 11.5497Z" fill="#FF5F00"/>
</g>
<defs>
<clipPath id="clip0_1_437">
<rect width="35" height="22" fill="white" transform="translate(0.269989 0.549805)"/>
</clipPath>
</defs>
</svg>
