<svg width="21" height="21" viewBox="0 0 21 21" fill="none" xmlns="http://www.w3.org/2000/svg">
<g id="Frame" clip-path="url(#clip0_1_427)">
<path id="Vector" d="M11.004 2.31293H13.648C14.055 2.31293 14.529 2.31293 15.072 2.38093C15.546 2.38093 15.953 2.44793 16.224 2.51593C16.495 2.58393 16.767 2.65193 16.902 2.71893C17.173 2.78693 17.377 2.92293 17.512 3.05893C17.648 3.19393 17.852 3.32893 18.055 3.46493C18.258 3.66893 18.394 3.80493 18.462 4.00793C18.529 4.21093 18.665 4.41393 18.801 4.61793C18.868 4.82093 18.936 5.02493 19.004 5.29593C19.072 5.56593 19.139 5.97393 19.139 6.44793C19.139 6.99093 19.207 7.46493 19.207 7.87193V13.1599C19.207 13.5669 19.207 14.0419 19.139 14.5839C19.139 15.0579 19.072 15.4649 19.004 15.7359C18.936 16.0079 18.868 16.2789 18.801 16.4139C18.745 16.6443 18.6275 16.8551 18.461 17.0239C18.326 17.2279 18.191 17.3639 18.055 17.5669C17.851 17.7699 17.715 17.9059 17.512 17.9739C17.3224 18.0921 17.117 18.183 16.902 18.2439C16.6793 18.3222 16.453 18.3903 16.224 18.4479C15.8468 18.539 15.4601 18.5847 15.072 18.5839C14.529 18.5839 14.055 18.6519 13.648 18.6519H8.36003C7.95303 18.6519 7.47803 18.6519 6.93603 18.5839C6.46203 18.5839 6.05503 18.5159 5.78403 18.4479C5.51203 18.3809 5.24103 18.3129 5.10603 18.2449C4.83403 18.1769 4.63103 18.0419 4.49603 17.9739C4.29203 17.8379 4.15603 17.7029 3.95303 17.5669C3.75003 17.3639 3.61403 17.2279 3.54603 17.0249C3.41103 16.8209 3.34303 16.6179 3.20703 16.4149C3.13002 16.1915 3.06229 15.965 3.00403 15.7359C2.91295 15.3587 2.86729 14.972 2.86803 14.5839C2.86803 14.0419 2.80103 13.5669 2.80103 13.1599V7.87193C2.80103 7.46493 2.80103 6.99093 2.86803 6.44793C2.86803 5.97393 2.93603 5.56693 3.00403 5.29593C3.07203 5.02493 3.13903 4.75293 3.20703 4.61793C3.27503 4.41393 3.41103 4.21093 3.54703 4.00793C3.68203 3.80393 3.81703 3.66793 3.95303 3.46493C4.15603 3.26193 4.29203 3.12593 4.49503 3.05793C4.69903 2.92293 4.90203 2.85493 5.10503 2.71893C5.30903 2.65193 5.51203 2.58393 5.78403 2.51593C6.16128 2.42518 6.54802 2.37986 6.93603 2.38093C7.47803 2.38093 7.95303 2.31293 8.36003 2.31293H11.004ZM11.004 0.549934H8.29203C7.88503 0.549934 7.41103 0.549934 6.86803 0.617934C6.32603 0.617934 5.85103 0.685934 5.51203 0.752934C5.10603 0.820934 4.76703 0.956934 4.42803 1.09293C4.08803 1.22793 3.81803 1.36293 3.47803 1.56693C3.20803 1.76993 2.93603 1.97393 2.66503 2.24493C2.39403 2.51593 2.12303 2.78693 1.98703 3.12593C1.85103 3.46593 1.64803 3.66893 1.51203 4.00793C1.37703 4.34693 1.24203 4.68593 1.17303 5.09193C1.08399 5.53846 1.03878 5.99262 1.03803 6.44793C0.970032 6.99093 0.970032 7.46493 0.970032 7.87193V13.2279C0.970032 13.6349 0.970032 14.1089 1.03803 14.6519C1.03803 15.1939 1.10603 15.6689 1.17303 16.0079C1.24103 16.4139 1.37703 16.7529 1.51303 17.0919C1.64803 17.4319 1.78303 17.7019 1.98703 18.0419C2.19003 18.3119 2.39403 18.5839 2.66503 18.8549C2.93603 19.1259 3.20703 19.3299 3.47803 19.5329C3.75003 19.7359 4.08803 19.8719 4.42803 20.0079C4.76703 20.1429 5.10603 20.2109 5.51203 20.3469C5.91903 20.4139 6.32603 20.4819 6.86803 20.4819C7.41103 20.4819 7.88503 20.5499 8.29203 20.5499H13.716C14.123 20.5499 14.597 20.5499 15.139 20.4819C15.682 20.4819 16.156 20.4139 16.495 20.3469C16.902 20.2789 17.241 20.1429 17.58 20.0069C17.92 19.8719 18.19 19.7369 18.53 19.5329C18.8 19.3299 19.072 19.1259 19.41 18.8549C19.682 18.5839 19.885 18.3129 20.089 17.9739C20.292 17.7029 20.428 17.3639 20.563 17.0919C20.699 16.7529 20.767 16.4139 20.834 16.0079C20.902 15.6009 20.97 15.1939 20.97 14.5839C20.97 14.0419 21.038 13.5669 21.038 13.1599V7.80393C21.038 7.39693 21.038 6.92293 20.97 6.38093C20.97 5.83793 20.902 5.36393 20.834 4.95693C20.767 4.54993 20.631 4.21093 20.564 3.87193C20.4332 3.54226 20.2743 3.22443 20.089 2.92193C19.885 2.58393 19.682 2.38093 19.411 2.10893C19.1472 1.84614 18.8508 1.61828 18.529 1.43093C18.259 1.22793 17.919 1.09193 17.58 0.956934C17.241 0.820934 16.902 0.685934 16.495 0.616934C16.089 0.549934 15.682 0.481934 15.139 0.481934H13.716C13.24 0.549934 12.36 0.549934 11.004 0.549934ZM11.004 5.43093C10.258 5.43093 9.64803 5.56693 8.97003 5.83793C8.36003 6.10893 7.81703 6.44793 7.34303 6.92293C6.86803 7.39693 6.52903 7.93993 6.25803 8.54993C5.98709 9.16982 5.84847 9.83942 5.85103 10.5159C5.85103 11.2619 5.98703 11.8719 6.25803 12.5499C6.52903 13.1599 6.86803 13.7029 7.34303 14.1769C7.81703 14.6519 8.36003 14.9909 8.97003 15.2619C9.58003 15.5329 10.258 15.6689 11.004 15.6689C11.75 15.6689 12.36 15.5329 13.038 15.2619C13.6523 15.0219 14.2073 14.6518 14.665 14.1769C15.139 13.7029 15.478 13.1599 15.75 12.5499C16.02 11.9399 16.156 11.2619 16.156 10.5159C16.156 9.83793 16.021 9.15993 15.75 8.54993C15.478 7.93993 15.14 7.39693 14.665 6.92293C14.19 6.44793 13.648 6.10893 13.038 5.83793C12.428 5.56693 11.682 5.43093 11.004 5.43093ZM11.004 13.9059C10.054 13.9059 9.30903 13.5659 8.63103 12.9559C7.95303 12.2789 7.68103 11.5329 7.68103 10.5839C7.68103 9.70293 8.02103 8.88893 8.63103 8.21093C9.24103 7.53293 10.055 7.19393 11.004 7.19393C11.953 7.19393 12.699 7.53293 13.377 8.21093C14.055 8.88893 14.326 9.63493 14.326 10.5839C14.326 11.5329 13.986 12.2789 13.376 12.9569C12.699 13.5669 11.886 13.9059 11.004 13.9059ZM17.512 5.22793C17.512 4.88893 17.377 4.61793 17.173 4.41393C16.9521 4.20603 16.6632 4.08554 16.36 4.07493C16.02 4.07493 15.75 4.21093 15.546 4.41493C15.3381 4.63582 15.2176 4.92478 15.207 5.22793C15.207 5.49893 15.343 5.83793 15.547 6.10893C15.75 6.38093 16.089 6.44893 16.36 6.44893C16.699 6.44893 16.97 6.31293 17.173 6.10893C17.377 5.83893 17.512 5.49893 17.512 5.22793Z" fill="#EF9540" fill-opacity="0.9"/>
</g>
<defs>
<clipPath id="clip0_1_427">
<rect width="20" height="20" fill="white" transform="translate(0.970032 0.549805)"/>
</clipPath>
</defs>
</svg>
