<svg width="15" height="15" viewBox="0 0 15 15" fill="none" xmlns="http://www.w3.org/2000/svg">
<g id="Frame" clip-path="url(#clip0_1_21)">
<path id="Vector" d="M14.98 13.7191L13.9482 14.75L10.1004 10.9013C9.05692 11.7312 7.75995 12.1772 6.42681 12.1646C4.84486 12.1615 3.32818 11.5336 2.20693 10.4176C1.65194 9.86615 1.21232 9.20967 0.913747 8.48647C0.611732 7.76104 0.457471 6.98264 0.459997 6.19685C0.457277 5.41281 0.610028 4.63601 0.909415 3.91137C1.2088 3.18673 1.64889 2.52864 2.20421 1.97516C2.76099 1.42198 3.42077 0.983255 4.14626 0.683789C4.86895 0.383188 5.6441 0.22896 6.42681 0.230039C7.21323 0.227028 7.99232 0.381303 8.71825 0.683789C9.44425 0.985079 10.0886 1.41523 10.6503 1.97516C11.2098 2.52566 11.653 3.183 11.9535 3.90814C12.2541 4.63363 12.4077 5.41156 12.4054 6.19685C12.4054 7.56082 11.9807 8.78595 11.1349 9.87041L14.98 13.7191ZM3.23059 9.38762C4.11359 10.2697 5.179 10.7135 6.42681 10.7135C7.67734 10.7135 8.74184 10.2697 9.62575 9.38762C10.5042 8.51007 10.9416 7.44739 10.9416 6.19867C10.9416 4.95539 10.5042 3.88908 9.62575 3.00064C8.73549 2.12218 7.67099 1.68476 6.42681 1.68476C5.17809 1.68476 4.11541 2.12308 3.23876 3.00064C2.35576 3.88363 1.91381 4.94813 1.91381 6.19776C1.91381 7.44557 2.35304 8.51007 3.23059 9.38762Z" fill="#EF9540"/>
</g>
<defs>
<clipPath id="clip0_1_21">
<rect width="14.52" height="14.52" fill="white" transform="translate(0.459961 0.229996)"/>
</clipPath>
</defs>
</svg>
