<svg width="36" height="23" viewBox="0 0 36 23" fill="none" xmlns="http://www.w3.org/2000/svg">
<g id="Img" clip-path="url(#clip0_1_447)">
<path id="Vector" d="M16.7783 0.549805V22.5498H10.1783C8.98664 22.5498 8.2533 21.6331 8.5283 20.4415L12.5616 2.65814C12.8366 1.46647 14.3033 0.549805 15.495 0.549805H16.7783ZM28.3283 0.549805C27.1366 0.549805 25.67 1.46647 25.395 2.65814L21.27 20.4415C20.995 21.6331 21.7283 22.5498 22.92 22.5498H18.4283V0.549805H28.3283Z" fill="#005B9A"/>
<path id="Vector_2" d="M15.495 0.549805C14.3033 0.549805 12.8366 1.55814 12.5616 2.65814L8.52831 20.4415C8.25331 21.6331 8.98664 22.5498 10.1783 22.5498H2.01997C1.28664 22.5498 0.64497 21.9998 0.64497 21.2665V2.01647C0.64497 1.28314 1.28664 0.549805 2.01997 0.549805H15.495Z" fill="#E9292D"/>
<path id="Vector_3" d="M28.3283 0.549805C27.1366 0.549805 25.67 1.55814 25.395 2.65814L21.3616 20.4415C21.0866 21.6331 21.82 22.5498 23.0116 22.5498H9.71997H10.1783C8.98664 22.5498 8.2533 21.6331 8.5283 20.4415L12.5616 2.65814C12.8366 1.46647 14.3033 0.549805 15.495 0.549805H28.3283Z" fill="#0E73B9"/>
<path id="Vector_4" d="M35.3866 2.01647V21.2665C35.3866 21.9998 34.8366 22.5498 34.0116 22.5498H22.92C21.7283 22.5498 20.995 21.5415 21.27 20.4415L25.395 2.65814C25.67 1.46647 27.1366 0.549805 28.3283 0.549805H34.0116C34.8366 0.549805 35.3866 1.19147 35.3866 2.01647Z" fill="#059DA4"/>
<path id="Vector_5" d="M14.1915 13.0577H14.3198C14.4481 13.0577 14.5765 12.9935 14.5765 12.9294L14.9615 12.3519H16.0523L15.8598 12.6727H17.1431L16.9506 13.2502H15.4106C15.2181 13.5069 15.0256 13.6352 14.769 13.6352H13.999L14.1915 13.0577ZM13.999 13.8919H16.7581L16.5656 14.5335H15.4748L15.2823 15.1752H16.3731L16.1806 15.8169H15.0898L14.8331 16.7794C14.769 16.9077 14.8331 17.036 15.0898 16.9719H15.9881L15.7956 17.6135H14.0631C13.7423 17.6135 13.614 17.421 13.7423 17.036L14.0631 15.8169H13.3573L13.5498 15.1752H14.2556L14.4481 14.5335H13.8065L13.999 13.8919ZM18.4265 12.2877V12.6727C18.4265 12.6727 18.9398 12.2877 19.4531 12.2877H21.2498L20.544 14.726C20.4798 14.9827 20.2231 15.1752 19.8381 15.1752H17.7848L17.3356 16.9077C17.3356 16.9719 17.3356 17.036 17.464 17.036H17.849L17.7206 17.5494H16.694C16.309 17.5494 16.1806 17.421 16.2448 17.2285L17.5923 12.2877H18.4265ZM19.9665 12.9935H18.3623L18.1698 13.6352C18.1698 13.6352 18.4265 13.4427 18.8756 13.4427H19.8381L19.9665 12.9935ZM19.389 14.5335C19.5173 14.5335 19.5815 14.5335 19.5815 14.4052L19.7098 14.0844H18.1056L17.9773 14.5977L19.389 14.5335ZM18.2981 15.3035H19.1965V15.6885H19.4531C19.5815 15.6885 19.6456 15.6244 19.6456 15.5602L19.7098 15.3035H20.4798L20.3515 15.7527C20.2873 16.0735 20.0306 16.2019 19.6456 16.266H19.1323V16.9719C19.1323 17.1002 19.1965 17.1644 19.4531 17.1644H19.9023L19.774 17.6777H18.6831C18.3623 17.6777 18.234 17.5494 18.234 17.2285L18.2981 15.3035ZM22.1481 13.0577L22.3406 12.2877H23.4315L23.3673 12.5444C23.3673 12.5444 23.8806 12.2877 24.3298 12.2877H25.6773L25.4848 13.0577H25.2923L24.2656 16.5869H24.4581L24.2656 17.2927H24.0731L24.009 17.6135H22.9181L22.9823 17.2927H20.9931L21.1856 16.5869H21.3781L22.4048 13.0577H22.1481ZM23.3031 13.0577L23.0465 14.0202C23.0465 14.0202 23.4956 13.8277 23.8806 13.7635C23.9448 13.4427 24.0731 13.0577 24.0731 13.0577H23.3031ZM22.854 14.4694L22.5973 15.496C22.5973 15.496 23.1106 15.2394 23.4956 15.2394C23.624 14.8544 23.6881 14.5335 23.6881 14.5335L22.854 14.4694ZM23.0465 16.5869L23.239 15.881H22.469L22.2765 16.5869H23.0465ZM25.6773 12.2877H26.704L26.7681 12.6727C26.7681 12.7369 26.8323 12.801 26.9606 12.801H27.1531L26.9606 13.4427H26.2548C25.9981 13.4427 25.8056 13.3785 25.8056 13.1219L25.6773 12.2877ZM25.3565 13.6352H28.629L28.4365 14.341H27.3456L27.1531 14.9827H28.1798L27.9873 15.6885H26.8323L26.5756 16.0735H27.1531L27.2815 16.8435C27.2815 16.9077 27.3456 16.9719 27.474 16.9719H27.6665L27.474 17.6135H26.8323C26.5115 17.6135 26.319 17.5494 26.319 17.2927L26.1906 16.5869L25.6773 17.3569C25.549 17.5494 25.3565 17.6777 25.0998 17.6777H24.1373L24.3298 17.036H24.6506C24.779 17.036 24.8431 16.9719 24.9715 16.8435L25.7415 15.6885H24.779L24.9715 14.9827H26.0623L26.2548 14.341H25.164L25.3565 13.6352ZM7.26147 9.01521C7.13314 9.65688 6.87647 10.106 6.42731 10.4269C5.97814 10.7477 5.40064 10.9402 4.6948 10.9402C4.05314 10.9402 3.53981 10.7477 3.28314 10.4269C3.09064 10.1702 2.9623 9.91354 2.9623 9.52854C2.9623 9.40021 2.96231 9.20771 3.02647 9.01521L3.79647 5.42188H4.88731L4.18147 9.01521V9.27187C4.18147 9.46437 4.24564 9.59271 4.3098 9.72104C4.43814 9.91354 4.63064 9.97771 4.95147 9.97771C5.27231 9.97771 5.59314 9.91354 5.78564 9.72104C5.97814 9.52854 6.17064 9.33604 6.2348 9.01521L6.94064 5.42188H8.03147L7.26147 9.01521ZM8.28814 7.60354H9.05814L8.99397 8.05271L9.1223 7.92437C9.37897 7.66771 9.69981 7.53937 10.0848 7.53937C10.4056 7.53937 10.6623 7.66771 10.7906 7.86021C10.919 8.05271 10.9831 8.30937 10.919 8.69437L10.4698 10.876H9.63564L10.0206 8.88688C10.0848 8.63021 10.0848 8.43771 10.0206 8.37354C9.95647 8.24521 9.82814 8.24521 9.69981 8.24521C9.50731 8.24521 9.3148 8.30937 9.18647 8.43771C9.05814 8.56604 8.92981 8.75854 8.92981 9.01521L8.54481 10.876H7.71064L8.28814 7.60354ZM17.2715 7.60354H18.0415L17.9773 8.05271L18.1056 7.92437C18.3623 7.66771 18.6831 7.53937 19.0681 7.53937C19.389 7.53937 19.6456 7.66771 19.774 7.86021C19.9023 8.05271 19.9665 8.30937 19.9023 8.69437L19.4531 10.876H18.619L19.004 8.82271C19.0681 8.63021 19.004 8.43771 18.9398 8.37354C18.8756 8.24521 18.7473 8.24521 18.619 8.24521C18.4265 8.24521 18.234 8.30937 18.1056 8.43771C17.9773 8.56604 17.849 8.75854 17.849 9.01521L17.464 10.876H16.6298L17.2715 7.60354ZM11.9456 7.60354H12.844L12.1381 10.8119H11.2398L11.9456 7.60354ZM12.2665 6.38437H13.1648L12.9723 7.15438H12.074L12.2665 6.38437ZM13.5498 10.5552C13.3573 10.3627 13.229 10.0419 13.229 9.65688V9.46437C13.229 9.40021 13.229 9.27187 13.2931 9.20771C13.4215 8.69437 13.614 8.24521 13.9348 7.98854C14.2556 7.66771 14.7048 7.53937 15.154 7.53937C15.539 7.53937 15.8598 7.66771 16.1165 7.86021C16.309 8.05271 16.4373 8.37354 16.4373 8.75854V8.95104C16.4373 9.01521 16.4373 9.14354 16.3731 9.20771C16.2448 9.72104 16.0523 10.106 15.7315 10.4269C15.4106 10.7477 14.9615 10.876 14.5123 10.876C14.1915 10.876 13.8706 10.7477 13.5498 10.5552ZM15.2823 9.91354C15.4106 9.72104 15.539 9.46437 15.6031 9.14354V8.82271C15.6031 8.63021 15.539 8.50187 15.4748 8.37354C15.4184 8.31082 15.349 8.26111 15.2714 8.22787C15.1938 8.19463 15.11 8.17865 15.0256 8.18104C14.769 8.18104 14.5765 8.24521 14.4481 8.43771C14.3198 8.63021 14.1915 8.88687 14.1273 9.20771V9.46437C14.1273 9.65687 14.1915 9.78521 14.2556 9.91354C14.384 10.0419 14.5123 10.106 14.7048 10.106C14.9615 10.1702 15.0898 10.106 15.2823 9.91354ZM21.2498 5.61437H23.5598C24.009 5.61437 24.3298 5.74271 24.5865 5.93521C24.8431 6.12771 24.9073 6.44854 24.9073 6.76937V7.02604C24.9073 7.09021 24.9073 7.21854 24.8431 7.28271C24.779 7.73188 24.5223 8.18104 24.2015 8.43771C23.8165 8.75854 23.4315 8.88688 22.9181 8.88688H21.6348L21.2498 10.7477H20.159L21.2498 5.61437ZM21.7631 7.98854H22.7898C23.0465 7.98854 23.239 7.92437 23.4315 7.79604C23.5598 7.66771 23.6881 7.47521 23.7523 7.21854V6.96188C23.7523 6.76938 23.6881 6.64104 23.5598 6.57688C23.4315 6.51271 23.239 6.44854 22.9181 6.44854H22.084L21.7631 7.98854ZM29.7198 11.3894C29.399 12.0952 29.0781 12.5444 28.8856 12.7369C28.6931 12.9294 28.3081 13.3785 27.4098 13.3785L27.474 12.801C28.244 12.5444 28.629 11.5177 28.8856 11.0044L28.629 7.53937H29.7198L29.784 9.72104L30.6181 7.60354H31.5806L29.7198 11.3894ZM27.0248 7.86021L26.6398 8.11688C26.2548 7.79604 25.8698 7.60354 25.2281 7.92437C24.3298 8.37354 23.4956 11.7102 26.0623 10.6194L26.1906 10.8119H27.2173L27.859 7.79604L27.0248 7.86021ZM26.5115 9.52854C26.319 10.0419 25.9981 10.2985 25.6773 10.2344C25.4206 10.106 25.3565 9.65687 25.4848 9.14354C25.6773 8.63021 25.9981 8.37354 26.319 8.43771C26.5756 8.56604 26.6398 9.01521 26.5115 9.52854Z" fill="white"/>
</g>
<defs>
<clipPath id="clip0_1_447">
<rect width="35" height="22" fill="white" transform="translate(0.469971 0.549805)"/>
</clipPath>
</defs>
</svg>
