<svg width="36" height="23" viewBox="0 0 36 23" fill="none" xmlns="http://www.w3.org/2000/svg">
<g id="Img" clip-path="url(#clip0_1_458)">
<path id="Vector" opacity="0.07" d="M32.8367 0.549805H3.50332C1.94498 0.549805 0.753315 1.74147 0.753315 3.2998V19.7998C0.753315 21.3581 2.03665 22.5498 3.50332 22.5498H32.8367C34.395 22.5498 35.5867 21.3581 35.5867 19.7998V3.2998C35.5867 1.74147 34.3033 0.549805 32.8367 0.549805Z" fill="black"/>
<path id="Vector_2" d="M32.8367 1.46631C33.845 1.46631 34.67 2.29131 34.67 3.29964V19.7996C34.67 20.808 33.845 21.633 32.8367 21.633H3.50332C2.49498 21.633 1.66998 20.808 1.66998 19.7996V3.29964C1.66998 2.29131 2.49498 1.46631 3.50332 1.46631H32.8367Z" fill="white"/>
<path id="Vector_3" d="M26.695 9.8083H26.42C26.0533 10.725 25.7783 11.1833 25.5033 12.5583H27.245C26.97 11.1833 26.97 10.5416 26.695 9.8083ZM29.3533 15.2166H27.795C27.7033 15.2166 27.7033 15.2166 27.6116 15.125L27.4283 14.3L27.3366 14.1166H25.1367C25.045 14.1166 24.9533 14.1166 24.9533 14.3L24.6783 15.125C24.6783 15.2166 24.5866 15.2166 24.5866 15.2166H22.6616L22.845 14.7583L25.5033 8.52497C25.5033 8.06663 25.7783 7.8833 26.2366 7.8833H27.6116C27.7033 7.8833 27.795 7.8833 27.795 8.06663L29.0783 14.025C29.17 14.3916 29.2617 14.6666 29.2617 15.0333C29.3533 15.125 29.3533 15.125 29.3533 15.2166ZM17.07 14.9416L17.4367 13.2916C17.5283 13.2916 17.62 13.3833 17.62 13.3833C18.2616 13.6583 18.9033 13.8416 19.545 13.75C19.7283 13.75 20.0033 13.6583 20.1867 13.5666C20.645 13.3833 20.645 12.925 20.2783 12.5583C20.095 12.375 19.82 12.2833 19.545 12.1C19.1783 11.9166 18.8116 11.7333 18.5366 11.4583C17.4366 10.5416 17.8033 9.2583 18.445 8.61663C18.995 8.24997 19.27 7.8833 20.0033 7.8833C21.1033 7.8833 22.295 7.8833 22.845 8.06663H22.9366C22.845 8.61663 22.7533 9.07497 22.57 9.62497C22.1116 9.44163 21.6533 9.2583 21.195 9.2583C20.92 9.2583 20.645 9.2583 20.37 9.34997C20.1866 9.34997 20.095 9.44163 20.0033 9.5333C19.82 9.71663 19.82 9.99163 20.0033 10.175L20.4616 10.5416C20.8283 10.725 21.195 10.9083 21.47 11.0916C21.9283 11.3666 22.3867 11.825 22.4783 12.375C22.6616 13.2 22.3866 13.9333 21.6533 14.4833C21.195 14.85 21.0116 15.0333 20.37 15.0333C19.0866 15.0333 18.0783 15.125 17.2533 14.85C17.1616 15.0333 17.1616 15.0333 17.07 14.9416ZM13.8616 15.2166C13.9533 14.575 13.9533 14.575 14.045 14.3C14.5033 12.2833 14.9616 10.175 15.3283 8.1583C15.42 7.97497 15.42 7.8833 15.6033 7.8833H17.2533C17.07 8.9833 16.8866 9.8083 16.6116 10.8166C16.3366 12.1916 16.0616 13.5666 15.695 14.9416C15.695 15.125 15.6033 15.125 15.42 15.125M5.33665 8.06663C5.33665 7.97497 5.51998 7.8833 5.61165 7.8833H8.72832C9.18665 7.8833 9.55332 8.1583 9.64498 8.61663L10.47 12.65C10.47 12.7416 10.47 12.7416 10.5616 12.8333C10.5616 12.7416 10.6533 12.7416 10.6533 12.7416L12.5783 8.06663C12.4866 7.97497 12.5783 7.8833 12.67 7.8833H14.595C14.595 7.97497 14.595 7.97497 14.5033 8.06663L11.6616 14.7583C11.57 14.9416 11.57 15.0333 11.4783 15.125C11.3866 15.2166 11.2033 15.125 11.02 15.125H9.64498C9.55332 15.125 9.46165 15.125 9.46165 14.9416L7.99498 9.2583C7.81165 9.07497 7.53665 8.79997 7.16998 8.7083C6.61998 8.4333 5.61165 8.24997 5.42832 8.24997L5.33665 8.06663Z" fill="#142688"/>
</g>
<defs>
<clipPath id="clip0_1_458">
<rect width="35" height="22" fill="white" transform="translate(0.669983 0.549805)"/>
</clipPath>
</defs>
</svg>
