<svg width="21" height="21" viewBox="0 0 21 21" fill="none" xmlns="http://www.w3.org/2000/svg">
<g id="Frame" clip-path="url(#clip0_1_432)">
<path id="Vector" d="M-0.0166233 16.0763C-0.0166233 16.8573 0.241155 17.5214 0.75671 18.0687C1.27227 18.616 1.89988 18.8893 2.63957 18.8887H16.8739C17.6135 18.8887 18.2412 18.6154 18.7567 18.0687C19.2723 17.522 19.53 16.8579 19.53 16.0763V4.7487C19.53 3.96774 19.2697 3.296 18.7491 2.73346C18.2285 2.17092 17.6034 1.88965 16.8739 1.88965H2.63957C1.91068 1.88965 1.2856 2.17092 0.764329 2.73346C0.243059 3.296 -0.0172582 3.96774 -0.0166233 4.7487V16.0763ZM7.0929 14.0296V6.79536C7.0929 6.72235 7.11385 6.6652 7.15576 6.62393C7.18687 6.61378 7.2129 6.6087 7.23385 6.6087L7.31195 6.62393L14.1243 10.2487C14.1662 10.2906 14.1872 10.3427 14.1872 10.4049C14.1872 10.4468 14.1662 10.4884 14.1243 10.5296L7.31195 14.1544C7.291 14.1754 7.27004 14.1858 7.24909 14.1858C7.20719 14.1858 7.17607 14.1754 7.15576 14.1544C7.11385 14.1125 7.0929 14.0709 7.0929 14.0296Z" fill="#EF9540" fill-opacity="0.9"/>
</g>
<defs>
<clipPath id="clip0_1_432">
<rect width="20" height="20" fill="white" transform="translate(0.170044 0.549805)"/>
</clipPath>
</defs>
</svg>
